<svg width="64" height="48" viewBox="0 0 64 48" fill="none" xmlns="http://www.w3.org/2000/svg">
<g clip-path="url(#clip0_1_10)">
<path d="M6.23047 37.8887H4.0332V36.623H6.23047C6.58984 36.623 6.88086 36.5645 7.10352 36.4473C7.33008 36.3262 7.49609 36.1621 7.60156 35.9551C7.70703 35.7441 7.75977 35.5039 7.75977 35.2344C7.75977 34.9727 7.70703 34.7285 7.60156 34.502C7.49609 34.2754 7.33008 34.0918 7.10352 33.9512C6.88086 33.8105 6.58984 33.7402 6.23047 33.7402H4.56055V41H2.94922V32.4688H6.23047C6.89453 32.4688 7.46094 32.5879 7.92969 32.8262C8.40234 33.0605 8.76172 33.3867 9.00781 33.8047C9.25781 34.2188 9.38281 34.6914 9.38281 35.2227C9.38281 35.7734 9.25781 36.248 9.00781 36.6465C8.76172 37.0449 8.40234 37.3516 7.92969 37.5664C7.46094 37.7812 6.89453 37.8887 6.23047 37.8887ZM13.2969 41.1172C12.8164 41.1172 12.3848 41.0391 12.002 40.8828C11.6191 40.7266 11.293 40.5098 11.0234 40.2324C10.7578 39.9512 10.5527 39.625 10.4082 39.2539C10.2676 38.8789 10.1973 38.4766 10.1973 38.0469V37.8125C10.1973 37.3242 10.2676 36.8809 10.4082 36.4824C10.5488 36.0801 10.748 35.7344 11.0059 35.4453C11.2637 35.1562 11.5723 34.9336 11.9316 34.7773C12.291 34.6211 12.6875 34.543 13.1211 34.543C13.5703 34.543 13.9668 34.6191 14.3105 34.7715C14.6543 34.9199 14.9414 35.1309 15.1719 35.4043C15.4023 35.6777 15.5762 36.0059 15.6934 36.3887C15.8105 36.7676 15.8691 37.1875 15.8691 37.6484V38.2988H10.9004V37.2324H14.3457V37.1152C14.3379 36.8691 14.291 36.6445 14.2051 36.4414C14.1191 36.2344 13.9863 36.0703 13.8066 35.9492C13.627 35.8242 13.3945 35.7617 13.1094 35.7617C12.8789 35.7617 12.6777 35.8125 12.5059 35.9141C12.3379 36.0117 12.1973 36.1523 12.084 36.3359C11.9746 36.5156 11.8926 36.7305 11.8379 36.9805C11.7832 37.2305 11.7559 37.5078 11.7559 37.8125V38.0469C11.7559 38.3125 11.791 38.5586 11.8613 38.7852C11.9355 39.0117 12.043 39.209 12.1836 39.377C12.3281 39.541 12.5 39.6699 12.6992 39.7637C12.9023 39.8535 13.1328 39.8984 13.3906 39.8984C13.7148 39.8984 14.0078 39.8359 14.2695 39.7109C14.5352 39.582 14.7656 39.3926 14.9609 39.1426L15.7402 39.9512C15.6074 40.1465 15.4277 40.334 15.2012 40.5137C14.9785 40.6934 14.709 40.8398 14.3926 40.9531C14.0762 41.0625 13.7109 41.1172 13.2969 41.1172ZM18.4238 36.0137V41H16.877V34.6602H18.3301L18.4238 36.0137ZM18.1777 37.6016H17.7207C17.7246 37.1406 17.7871 36.7227 17.9082 36.3477C18.0293 35.9727 18.1992 35.6504 18.418 35.3809C18.6406 35.1113 18.9043 34.9043 19.209 34.7598C19.5137 34.6152 19.8535 34.543 20.2285 34.543C20.5332 34.543 20.8086 34.5859 21.0547 34.6719C21.3008 34.7578 21.5117 34.8945 21.6875 35.082C21.8672 35.2695 22.0039 35.5156 22.0977 35.8203C22.1953 36.1211 22.2441 36.4922 22.2441 36.9336V41H20.6855V36.9219C20.6855 36.6328 20.6426 36.4043 20.5566 36.2363C20.4746 36.0684 20.3535 35.9492 20.1934 35.8789C20.0371 35.8086 19.8438 35.7734 19.6133 35.7734C19.375 35.7734 19.166 35.8223 18.9863 35.9199C18.8105 36.0137 18.6621 36.1445 18.541 36.3125C18.4238 36.4805 18.334 36.6738 18.2715 36.8926C18.209 37.1113 18.1777 37.3477 18.1777 37.6016ZM25.127 36.0137V41H23.5801V34.6602H25.0332L25.127 36.0137ZM24.8809 37.6016H24.4238C24.4277 37.1406 24.4902 36.7227 24.6113 36.3477C24.7324 35.9727 24.9023 35.6504 25.1211 35.3809C25.3438 35.1113 25.6074 34.9043 25.9121 34.7598C26.2168 34.6152 26.5566 34.543 26.9316 34.543C27.2363 34.543 27.5117 34.5859 27.7578 34.6719C28.0039 34.7578 28.2148 34.8945 28.3906 35.082C28.5703 35.2695 28.707 35.5156 28.8008 35.8203C28.8984 36.1211 28.9473 36.4922 28.9473 36.9336V41H27.3887V36.9219C27.3887 36.6328 27.3457 36.4043 27.2598 36.2363C27.1777 36.0684 27.0566 35.9492 26.8965 35.8789C26.7402 35.8086 26.5469 35.7734 26.3164 35.7734C26.0781 35.7734 25.8691 35.8223 25.6895 35.9199C25.5137 36.0137 25.3652 36.1445 25.2441 36.3125C25.127 36.4805 25.0371 36.6738 24.9746 36.8926C24.9121 37.1113 24.8809 37.3477 24.8809 37.6016ZM32.1699 40.2969L33.8691 34.6602H35.5273L32.9844 41.9609C32.9258 42.1172 32.8496 42.2871 32.7559 42.4707C32.666 42.6543 32.5449 42.8281 32.3926 42.9922C32.2402 43.1602 32.0488 43.2969 31.8184 43.4023C31.5918 43.5078 31.3164 43.5605 30.9922 43.5605C30.8516 43.5605 30.7266 43.5508 30.6172 43.5312C30.5078 43.5117 30.3926 43.4863 30.2715 43.4551V42.2949C30.3105 42.2988 30.3555 42.3008 30.4062 42.3008C30.4609 42.3047 30.5078 42.3066 30.5469 42.3066C30.7734 42.3066 30.9609 42.2793 31.1094 42.2246C31.2578 42.1738 31.377 42.0898 31.4668 41.9727C31.5605 41.8594 31.6387 41.7109 31.7012 41.5273L32.1699 40.2969ZM31.332 34.6602L32.7676 39.3301L33.0195 40.9648L31.9531 41.1582L29.6621 34.6602H31.332ZM38.4922 39.3652L40.1914 32.4688H41.1113L41.1699 33.9219L39.3535 41H38.3809L38.4922 39.3652ZM37.4199 32.4688L38.8145 39.3418V41H37.7539L35.8203 32.4688H37.4199ZM42.9336 39.3125L44.3047 32.4688H45.9102L43.9766 41H42.916L42.9336 39.3125ZM41.5508 32.4688L43.25 39.3887L43.3496 41H42.377L40.5664 33.916L40.6367 32.4688H41.5508ZM48.4531 34.6602V41H46.9004V34.6602H48.4531ZM46.7949 33.002C46.7949 32.7715 46.873 32.5801 47.0293 32.4277C47.1895 32.2754 47.4043 32.1992 47.6738 32.1992C47.9434 32.1992 48.1562 32.2754 48.3125 32.4277C48.4727 32.5801 48.5527 32.7715 48.5527 33.002C48.5527 33.2285 48.4727 33.418 48.3125 33.5703C48.1562 33.7227 47.9434 33.7988 47.6738 33.7988C47.4043 33.7988 47.1895 33.7227 47.0293 33.5703C46.873 33.418 46.7949 33.2285 46.7949 33.002ZM53.416 39.2656C53.416 39.1328 53.3809 39.0137 53.3105 38.9082C53.2402 38.8027 53.1074 38.707 52.9121 38.6211C52.7207 38.5312 52.4395 38.4473 52.0684 38.3691C51.7402 38.2988 51.4375 38.2109 51.1602 38.1055C50.8828 38 50.6445 37.873 50.4453 37.7246C50.2461 37.5723 50.0898 37.3945 49.9766 37.1914C49.8672 36.9844 49.8125 36.7461 49.8125 36.4766C49.8125 36.2148 49.8691 35.9688 49.9824 35.7383C50.0957 35.5039 50.2598 35.2988 50.4746 35.123C50.6895 34.9434 50.9512 34.8027 51.2598 34.7012C51.5684 34.5957 51.916 34.543 52.3027 34.543C52.8418 34.543 53.3047 34.6309 53.6914 34.8066C54.082 34.9824 54.3809 35.2246 54.5879 35.5332C54.7949 35.8379 54.8984 36.1816 54.8984 36.5645H53.3516C53.3516 36.3965 53.3125 36.2441 53.2344 36.1074C53.1602 35.9707 53.0449 35.8613 52.8887 35.7793C52.7324 35.6934 52.5352 35.6504 52.2969 35.6504C52.082 35.6504 51.9004 35.6855 51.752 35.7559C51.6074 35.8262 51.498 35.918 51.4238 36.0312C51.3496 36.1445 51.3125 36.2695 51.3125 36.4062C51.3125 36.5078 51.332 36.5996 51.3711 36.6816C51.4141 36.7598 51.4824 36.832 51.5762 36.8984C51.6699 36.9648 51.7969 37.0254 51.957 37.0801C52.1211 37.1348 52.3223 37.1875 52.5605 37.2383C53.0332 37.332 53.4453 37.457 53.7969 37.6133C54.1523 37.7656 54.4297 37.9688 54.6289 38.2227C54.8281 38.4766 54.9277 38.8008 54.9277 39.1953C54.9277 39.4766 54.8672 39.7344 54.7461 39.9688C54.625 40.1992 54.4492 40.4004 54.2188 40.5723C53.9883 40.7441 53.7129 40.8789 53.3926 40.9766C53.0723 41.0703 52.7109 41.1172 52.3086 41.1172C51.7266 41.1172 51.2344 41.0137 50.832 40.8066C50.4297 40.5957 50.125 40.3301 49.918 40.0098C49.7109 39.6855 49.6074 39.3496 49.6074 39.002H51.0898C51.1016 39.248 51.168 39.4453 51.2891 39.5938C51.4102 39.7422 51.5625 39.8496 51.7461 39.916C51.9336 39.9785 52.1309 40.0098 52.3379 40.0098C52.5723 40.0098 52.7695 39.9785 52.9297 39.916C53.0898 39.8496 53.2109 39.7617 53.293 39.6523C53.375 39.5391 53.416 39.4102 53.416 39.2656ZM58.9531 41.1172C58.4727 41.1172 58.041 41.0391 57.6582 40.8828C57.2754 40.7266 56.9492 40.5098 56.6797 40.2324C56.4141 39.9512 56.209 39.625 56.0645 39.2539C55.9238 38.8789 55.8535 38.4766 55.8535 38.0469V37.8125C55.8535 37.3242 55.9238 36.8809 56.0645 36.4824C56.2051 36.0801 56.4043 35.7344 56.6621 35.4453C56.9199 35.1562 57.2285 34.9336 57.5879 34.7773C57.9473 34.6211 58.3438 34.543 58.7773 34.543C59.2266 34.543 59.623 34.6191 59.9668 34.7715C60.3105 34.9199 60.5977 35.1309 60.8281 35.4043C61.0586 35.6777 61.2324 36.0059 61.3496 36.3887C61.4668 36.7676 61.5254 37.1875 61.5254 37.6484V38.2988H56.5566V37.2324H60.002V37.1152C59.9941 36.8691 59.9473 36.6445 59.8613 36.4414C59.7754 36.2344 59.6426 36.0703 59.4629 35.9492C59.2832 35.8242 59.0508 35.7617 58.7656 35.7617C58.5352 35.7617 58.334 35.8125 58.1621 35.9141C57.9941 36.0117 57.8535 36.1523 57.7402 36.3359C57.6309 36.5156 57.5488 36.7305 57.4941 36.9805C57.4395 37.2305 57.4121 37.5078 57.4121 37.8125V38.0469C57.4121 38.3125 57.4473 38.5586 57.5176 38.7852C57.5918 39.0117 57.6992 39.209 57.8398 39.377C57.9844 39.541 58.1562 39.6699 58.3555 39.7637C58.5586 39.8535 58.7891 39.8984 59.0469 39.8984C59.3711 39.8984 59.6641 39.8359 59.9258 39.7109C60.1914 39.582 60.4219 39.3926 60.6172 39.1426L61.3965 39.9512C61.2637 40.1465 61.084 40.334 60.8574 40.5137C60.6348 40.6934 60.3652 40.8398 60.0488 40.9531C59.7324 41.0625 59.3672 41.1172 58.9531 41.1172Z" fill="#FD4A21"/>
<path d="M30 11.5H34C34.0111 9.59766 34.6689 8.90181 36.3962 8.05072C36.464 8.01733 36.5392 8 36.6148 8H44.5L47.6464 4.85355C47.9614 4.53857 47.7383 4 47.2929 4H36.0657C36.0221 4 35.9777 4.00592 35.9357 4.01729C32.4955 4.94665 31.2467 6.09611 30 9V11.5Z" fill="#FD4A21"/>
<path d="M41.1464 11.3536C41.0527 11.4473 41 11.5745 41 11.7071V17.3969C41 17.4649 40.9858 17.5331 40.9587 17.5955C39.9415 19.9362 39.1209 20.9806 37.1016 21.9517C37.0353 21.9835 36.9618 22 36.8883 22H28.5L35.3517 29.3412C35.4463 29.4425 35.5787 29.5 35.7173 29.5H39.9129C40.3401 29.5 40.5705 28.9989 40.2925 28.6746L38.4499 26.5249C38.2283 26.2663 38.3261 25.8661 38.6369 25.7267C42.3176 24.075 43.3969 22.2311 44.4794 18.5699C44.4929 18.5241 44.5 18.4758 44.5 18.4281V8L41.1464 11.3536Z" fill="white"/>
<path d="M16.8536 28.6464C16.5386 28.9614 16.7617 29.5 17.2071 29.5H20.7929C20.9255 29.5 21.0527 29.4473 21.1464 29.3536L28.5 22L36.1464 14.3536C36.3417 14.1583 36.3417 13.8417 36.1464 13.6464L34 11.5L16.8536 28.6464Z" fill="white"/>
</g>
<defs>
<clipPath id="clip0_1_10">
<rect width="64" height="48" fill="white"/>
</clipPath>
</defs>
</svg>
