<?xml version="1.0" encoding="UTF-8"?>
<!DOCTYPE svg PUBLIC "-//W3C//DTD SVG 1.1//EN" "http://www.w3.org/Graphics/SVG/1.1/DTD/svg11.dtd">
<svg xmlns="http://www.w3.org/2000/svg" version="1.1" width="200px" height="150px" style="shape-rendering:geometricPrecision; text-rendering:geometricPrecision; image-rendering:optimizeQuality; fill-rule:evenodd; clip-rule:evenodd" xmlns:xlink="http://www.w3.org/1999/xlink">
<g><path style="opacity:1" fill="#f3461a" d="M 138.5,21.5 C 129.983,21.1739 121.65,21.5073 113.5,22.5C 109.833,24.1667 107.167,26.8333 105.5,30.5C 104.596,31.209 104.263,32.209 104.5,33.5C 100.5,33.5 96.5,33.5 92.5,33.5C 91.6412,28.7068 92.9746,24.3734 96.5,20.5C 97.9063,20.0269 98.573,19.0269 98.5,17.5C 101.626,13.7617 105.626,11.2617 110.5,10C 123.742,9.82364 136.908,9.32364 150,8.5C 147.195,13.4883 143.362,17.8216 138.5,21.5 Z"/></g>
<g><path style="opacity:0.851" fill="#6d2410" d="M 98.5,17.5 C 98.573,19.0269 97.9063,20.0269 96.5,20.5C 96.427,18.9731 97.0937,17.9731 98.5,17.5 Z"/></g>
<g><path style="opacity:0.192" fill="#44130d" d="M 113.5,22.5 C 121.65,21.5073 129.983,21.1739 138.5,21.5C 138.5,21.8333 138.5,22.1667 138.5,22.5C 137.833,22.8333 137.167,23.1667 136.5,23.5C 129.018,22.508 121.352,22.1746 113.5,22.5 Z"/></g>
<g><path style="opacity:0.997" fill="#e4e2e0" d="M 138.5,22.5 C 138.667,33.8382 138.5,45.1716 138,56.5C 135.101,67.4956 128.268,74.6623 117.5,78C 121.37,81.7023 125.037,85.5357 128.5,89.5C 123.025,90.4889 117.358,90.8222 111.5,90.5C 104.528,83.1931 97.5277,75.8598 90.5,68.5C 90.5,67.8333 90.5,67.1667 90.5,66.5C 97.5079,66.6663 104.508,66.4996 111.5,66C 118.294,64.8538 122.794,61.0205 125,54.5C 125.333,47.5 125.667,40.5 126,33.5C 129.369,29.9626 132.869,26.6293 136.5,23.5C 137.167,23.1667 137.833,22.8333 138.5,22.5 Z"/></g>
<g><path style="opacity:0.817" fill="#a42f13" d="M 105.5,30.5 C 105.5,31.8333 105.5,33.1667 105.5,34.5C 104.833,34.5 104.167,34.5 103.5,34.5C 99.6286,34.815 95.9619,34.4816 92.5,33.5C 96.5,33.5 100.5,33.5 104.5,33.5C 104.263,32.209 104.596,31.209 105.5,30.5 Z"/></g>
<g><path style="opacity:0.999" fill="#e3e1df" d="M 103.5,34.5 C 104.167,34.5 104.833,34.5 105.5,34.5C 108.479,36.8123 111.146,39.4789 113.5,42.5C 105.812,50.5206 98.1452,58.5206 90.5,66.5C 90.5,67.1667 90.5,67.8333 90.5,68.5C 89.8826,68.3893 89.3826,68.056 89,67.5C 81.2983,75.3691 73.4649,83.0358 65.5,90.5C 59.9738,90.8214 54.6405,90.4881 49.5,89.5C 61.8607,76.8066 74.1941,64.14 86.5,51.5C 89.1667,50.8333 90.8333,49.1667 91.5,46.5C 95.1938,42.1396 99.1938,38.1396 103.5,34.5 Z"/></g>
<g><path style="opacity:0.808" fill="#7c7a7a" d="M 91.5,46.5 C 90.8333,49.1667 89.1667,50.8333 86.5,51.5C 87.8333,49.5 89.5,47.8333 91.5,46.5 Z"/></g>
<g><path style="opacity:0.251" fill="#3b3938" d="M 49.5,89.5 C 54.6405,90.4881 59.9738,90.8214 65.5,90.5C 59.9871,91.8157 54.3204,91.8157 48.5,90.5C 48.6236,89.8933 48.9569,89.56 49.5,89.5 Z"/></g>
<g><path style="opacity:0.239" fill="#363532" d="M 128.5,89.5 C 129.043,89.56 129.376,89.8933 129.5,90.5C 123.346,91.8166 117.346,91.8166 111.5,90.5C 117.358,90.8222 123.025,90.4889 128.5,89.5 Z"/></g>
<g><path style="opacity:0.02" fill="#0a0100" d="M 143.5,106.5 C 144.5,106.5 145.5,106.5 146.5,106.5C 146.5,107.833 146.5,109.167 146.5,110.5C 145.883,110.389 145.383,110.056 145,109.5C 144.583,110.756 143.75,111.423 142.5,111.5C 143.301,109.958 143.634,108.292 143.5,106.5 Z"/></g>
<g><path style="opacity:1" fill="#d53c16" d="M 148.5,111.5 C 148.167,111.5 147.833,111.5 147.5,111.5C 146.833,111.5 146.5,111.167 146.5,110.5C 146.5,109.167 146.5,107.833 146.5,106.5C 150.977,104.395 152.81,105.728 152,110.5C 150.989,111.337 149.822,111.67 148.5,111.5 Z"/></g>
<g><path style="opacity:1" fill="#e24118" d="M 3.5,107.5 C 8.65025,106.349 13.9836,106.183 19.5,107C 23.744,108.477 26.0773,111.477 26.5,116C 24.0354,123.738 18.7021,126.571 10.5,124.5C 10.5,127.833 10.5,131.167 10.5,134.5C 7.92083,134.917 5.75417,134.25 4,132.5C 4.596,123.951 4.42934,115.618 3.5,107.5 Z M 16.5,111.5 C 17.5116,112.872 18.5116,114.205 19.5,115.5C 19.5,115.833 19.5,116.167 19.5,116.5C 18.5987,117.29 17.9321,118.29 17.5,119.5C 15.1667,119.5 12.8333,119.5 10.5,119.5C 10.5,116.833 10.5,114.167 10.5,111.5C 12.5,111.5 14.5,111.5 16.5,111.5 Z"/></g>
<g><path style="opacity:1" fill="#d63d17" d="M 143.5,106.5 C 143.634,108.292 143.301,109.958 142.5,111.5C 141.169,119.157 139.836,126.823 138.5,134.5C 136.076,134.808 133.743,134.474 131.5,133.5C 130.026,129.269 129.026,124.936 128.5,120.5C 128.719,119.325 128.386,118.325 127.5,117.5C 126.702,117.957 126.369,118.624 126.5,119.5C 125.711,124.536 124.711,129.536 123.5,134.5C 121.167,134.5 118.833,134.5 116.5,134.5C 115.165,127.491 113.831,120.491 112.5,113.5C 112.443,112.391 112.11,111.391 111.5,110.5C 111.461,109.417 111.127,108.417 110.5,107.5C 112.743,106.526 115.076,106.192 117.5,106.5C 118.05,112.027 119.217,117.36 121,122.5C 122.068,117.134 123.234,111.801 124.5,106.5C 126.5,106.5 128.5,106.5 130.5,106.5C 131.352,111.892 132.518,117.225 134,122.5C 135.957,117.416 136.79,112.082 136.5,106.5C 139.144,106.285 141.477,106.285 143.5,106.5 Z"/></g>
<g><path style="opacity:0.004" fill="#150400" d="M 111.5,110.5 C 112.11,111.391 112.443,112.391 112.5,113.5C 110.618,112.779 110.285,111.779 111.5,110.5 Z"/></g>
<g><path style="opacity:0.733" fill="#50190c" d="M 16.5,111.5 C 18.9118,111.694 19.9118,113.027 19.5,115.5C 18.5116,114.205 17.5116,112.872 16.5,111.5 Z"/></g>
<g><path style="opacity:1" fill="#d73e18" d="M 46.5,121.5 C 46.5,122.833 46.5,124.167 46.5,125.5C 42.1161,125.174 37.7828,125.508 33.5,126.5C 33.6236,127.107 33.9569,127.44 34.5,127.5C 34.8333,127.5 35.1667,127.5 35.5,127.5C 36.6354,129.213 38.302,129.88 40.5,129.5C 42.2341,128.438 43.9008,128.438 45.5,129.5C 46.9355,131.665 46.2688,133.165 43.5,134C 36.3088,137.335 31.1422,135.168 28,127.5C 27.5046,124.469 27.6713,121.469 28.5,118.5C 31.9436,113.809 36.6102,112.309 42.5,114C 45.3974,115.715 46.7307,118.215 46.5,121.5 Z M 40.5,119.5 C 40.0296,120.693 39.0296,121.36 37.5,121.5C 36.2739,121.48 35.2739,121.147 34.5,120.5C 35.2216,120.082 35.7216,119.416 36,118.5C 37.3561,119.38 38.8561,119.714 40.5,119.5 Z"/></g>
<g><path style="opacity:1" fill="#eb4419" d="M 62.5,134.5 C 62.6659,129.489 62.4993,124.489 62,119.5C 59.7265,118.189 57.5598,118.189 55.5,119.5C 54.5139,123.97 54.1805,128.637 54.5,133.5C 53.1667,133.5 51.8333,133.5 50.5,133.5C 50.5,127.167 50.5,120.833 50.5,114.5C 52.7411,114.954 54.7411,114.954 56.5,114.5C 58.9664,113.366 61.633,113.199 64.5,114C 65.6667,114.5 66.5,115.333 67,116.5C 67.2109,122.218 67.7109,127.885 68.5,133.5C 66.604,134.466 64.604,134.799 62.5,134.5 Z"/></g>
<g><path style="opacity:1" fill="#d23c17" d="M 88.5,117.5 C 89.038,119.117 89.3713,120.784 89.5,122.5C 89.5,126.5 89.5,130.5 89.5,134.5C 87.076,134.808 84.7427,134.474 82.5,133.5C 82.7856,128.928 82.7856,124.261 82.5,119.5C 80.8333,119.5 79.1667,119.5 77.5,119.5C 77.5,124.5 77.5,129.5 77.5,134.5C 75.5,134.5 73.5,134.5 71.5,134.5C 71.5,127.833 71.5,121.167 71.5,114.5C 73.1667,114.5 74.8333,114.5 76.5,114.5C 79.7786,113.508 83.1119,113.341 86.5,114C 87.8228,114.816 88.4894,115.983 88.5,117.5 Z"/></g>
<g><path style="opacity:0.459" fill="#711d08" d="M 104.5,114.5 C 106.265,113.539 108.265,113.205 110.5,113.5C 110.737,114.791 110.404,115.791 109.5,116.5C 108.448,114.744 106.781,114.077 104.5,114.5 Z"/></g>
<g><path style="opacity:1" fill="#d13c17" d="M 172.5,117.5 C 171.012,119.845 169.012,120.179 166.5,118.5C 165.022,118.238 163.689,118.571 162.5,119.5C 162.855,120.522 163.522,121.189 164.5,121.5C 166.302,122.458 168.302,123.125 170.5,123.5C 171.906,123.973 172.573,124.973 172.5,126.5C 172.5,127.833 172.5,129.167 172.5,130.5C 171.463,133.766 169.13,135.433 165.5,135.5C 160.786,135.312 157.12,133.312 154.5,129.5C 156.023,127.717 158.023,127.051 160.5,127.5C 160.5,129.5 161.5,130.5 163.5,130.5C 168.665,129.611 168.665,128.278 163.5,126.5C 162.609,125.89 161.609,125.557 160.5,125.5C 154.307,122.361 153.974,118.528 159.5,114C 162.833,113.333 166.167,113.333 169.5,114C 171.426,114.422 172.426,115.589 172.5,117.5 Z"/></g>
<g><path style="opacity:1" fill="#de3f18" d="M 194.5,125.5 C 190.116,125.174 185.783,125.508 181.5,126.5C 181.624,127.107 181.957,127.44 182.5,127.5C 183.99,129.28 185.99,129.946 188.5,129.5C 189.833,129.167 191.167,128.833 192.5,128.5C 193.338,128.842 193.672,129.508 193.5,130.5C 192.833,131.5 192.167,132.5 191.5,133.5C 187.987,135.563 184.321,135.729 180.5,134C 178.181,132.853 176.848,131.019 176.5,128.5C 176.5,125.833 176.5,123.167 176.5,120.5C 176.5,119.833 176.5,119.167 176.5,118.5C 179.492,113.743 183.825,112.243 189.5,114C 193.907,116.532 195.574,120.365 194.5,125.5 Z M 186.5,118.5 C 186.804,119.15 187.137,119.817 187.5,120.5C 185.701,121.788 184.035,121.788 182.5,120.5C 183.671,119.655 185.005,118.989 186.5,118.5 Z"/></g>
<g><path style="opacity:0.858" fill="#882910" d="M 56.5,114.5 C 54.7411,114.954 52.7411,114.954 50.5,114.5C 50.5,120.833 50.5,127.167 50.5,133.5C 51.8333,133.5 53.1667,133.5 54.5,133.5C 54.1805,128.637 54.5139,123.97 55.5,119.5C 55.5,119.833 55.5,120.167 55.5,120.5C 55.5,125.167 55.5,129.833 55.5,134.5C 53.1667,134.5 50.8333,134.5 48.5,134.5C 48.3257,127.465 48.6591,120.465 49.5,113.5C 51.9496,113.298 54.283,113.631 56.5,114.5 Z"/></g>
<g><path style="opacity:0.026" fill="#3a1205" d="M 97.5,114.5 C 95.4727,114.338 93.4727,114.505 91.5,115C 92.3366,116.011 92.67,117.178 92.5,118.5C 90.7868,117.365 90.1201,115.698 90.5,113.5C 93.0593,113.198 95.3926,113.532 97.5,114.5 Z"/></g>
<g><path style="opacity:1" fill="#d53d17" d="M 97.5,114.5 C 98.4286,117.924 99.5953,121.258 101,124.5C 101.373,120.782 102.539,117.449 104.5,114.5C 106.781,114.077 108.448,114.744 109.5,116.5C 107.204,124.391 104.538,132.057 101.5,139.5C 100.5,139.833 99.8333,140.5 99.5,141.5C 97.7354,142.461 95.7354,142.795 93.5,142.5C 93.3653,140.446 94.032,138.779 95.5,137.5C 96.5251,136.626 97.1918,135.459 97.5,134C 95.4337,128.88 93.7671,123.713 92.5,118.5C 92.67,117.178 92.3366,116.011 91.5,115C 93.4727,114.505 95.4727,114.338 97.5,114.5 Z"/></g>
<g><path style="opacity:1" fill="#ef4419" d="M 146.5,114.5 C 148.167,114.5 149.833,114.5 151.5,114.5C 151.5,121.167 151.5,127.833 151.5,134.5C 149.833,134.5 148.167,134.5 146.5,134.5C 146.432,127.525 146.432,120.858 146.5,114.5 Z"/></g>
<g><path style="opacity:0.52" fill="#791e09" d="M 147.5,111.5 C 147.833,111.5 148.167,111.5 148.5,111.5C 149.183,113.176 150.517,113.843 152.5,113.5C 152.825,120.687 152.491,127.687 151.5,134.5C 151.5,127.833 151.5,121.167 151.5,114.5C 149.833,114.5 148.167,114.5 146.5,114.5C 147.11,113.609 147.443,112.609 147.5,111.5 Z"/></g>
<g><path style="opacity:0.004" fill="#000000" d="M 28.5,118.5 C 27.8333,117.167 27.8333,117.167 28.5,118.5 Z"/></g>
<g><path style="opacity:0.839" fill="#5f1e10" d="M 19.5,116.5 C 19.7148,118.179 19.0481,119.179 17.5,119.5C 17.9321,118.29 18.5987,117.29 19.5,116.5 Z"/></g>
<g><path style="opacity:0.005" fill="#170500" d="M 88.5,117.5 C 90.5969,118.879 90.9302,120.545 89.5,122.5C 89.3713,120.784 89.038,119.117 88.5,117.5 Z"/></g>
<g><path style="opacity:0.322" fill="#521406" d="M 128.5,120.5 C 127.833,120.167 127.167,119.833 126.5,119.5C 126.369,118.624 126.702,117.957 127.5,117.5C 128.386,118.325 128.719,119.325 128.5,120.5 Z"/></g>
<g><path style="opacity:0.016" fill="#291003" d="M 172.5,117.5 C 173.705,119.138 175.038,119.471 176.5,118.5C 176.5,119.167 176.5,119.833 176.5,120.5C 175.833,120.5 175.5,120.833 175.5,121.5C 173.402,120.037 171.402,120.204 169.5,122C 170.056,122.383 170.389,122.883 170.5,123.5C 168.302,123.125 166.302,122.458 164.5,121.5C 165.552,121.649 166.552,121.483 167.5,121C 166.748,120.329 166.414,119.496 166.5,118.5C 169.012,120.179 171.012,119.845 172.5,117.5 Z"/></g>
<g><path style="opacity:0.247" fill="#470e02" d="M 40.5,119.5 C 41.404,120.209 41.7373,121.209 41.5,122.5C 38.7531,122.813 36.0865,122.48 33.5,121.5C 33.6236,120.893 33.9569,120.56 34.5,120.5C 35.2739,121.147 36.2739,121.48 37.5,121.5C 39.0296,121.36 40.0296,120.693 40.5,119.5 Z"/></g>
<g><path style="opacity:0.176" fill="#360d02" d="M 186.5,118.5 C 188.176,119.183 188.843,120.517 188.5,122.5C 186.076,122.808 183.743,122.474 181.5,121.5C 181.624,120.893 181.957,120.56 182.5,120.5C 184.035,121.788 185.701,121.788 187.5,120.5C 187.137,119.817 186.804,119.15 186.5,118.5 Z"/></g>
<g><path style="opacity:0.804" fill="#74210e" d="M 176.5,120.5 C 176.5,123.167 176.5,125.833 176.5,128.5C 175.833,128.167 175.167,127.833 174.5,127.5C 174.833,125.5 175.167,123.5 175.5,121.5C 175.5,120.833 175.833,120.5 176.5,120.5 Z"/></g>
<g><path style="opacity:0.235" fill="#410b01" d="M 76.5,114.5 C 74.8333,114.5 73.1667,114.5 71.5,114.5C 71.5,121.167 71.5,127.833 71.5,134.5C 70.5088,127.687 70.1755,120.687 70.5,113.5C 72.7354,113.205 74.7354,113.539 76.5,114.5 Z"/></g>
<g><path style="opacity:0.015" fill="#200801" d="M 46.5,121.5 C 47.1471,122.274 47.4805,123.274 47.5,124.5C 47.0135,126.304 46.3468,127.971 45.5,129.5C 43.9008,128.438 42.2341,128.438 40.5,129.5C 39.2196,128.069 37.5529,127.402 35.5,127.5C 35.1667,126.167 34.8333,126.167 34.5,127.5C 33.9569,127.44 33.6236,127.107 33.5,126.5C 37.7828,125.508 42.1161,125.174 46.5,125.5C 46.5,124.167 46.5,122.833 46.5,121.5 Z"/></g>
<g><path style="opacity:0.504" fill="#4c1808" d="M 62.5,134.5 C 61.4138,134.38 60.7472,133.713 60.5,132.5C 61.1347,129.13 61.4681,125.797 61.5,122.5C 60.2351,119.531 58.2351,118.865 55.5,120.5C 55.5,120.167 55.5,119.833 55.5,119.5C 57.5598,118.189 59.7265,118.189 62,119.5C 62.4993,124.489 62.6659,129.489 62.5,134.5 Z"/></g>
<g><path style="opacity:0.004" fill="#100100" d="M 160.5,125.5 C 161.609,125.557 162.609,125.89 163.5,126.5C 163.158,127.338 162.492,127.672 161.5,127.5C 161.167,126.833 160.833,126.167 160.5,125.5 Z"/></g>
<g><path style="opacity:0.009" fill="#200901" d="M 194.5,125.5 C 193.833,126.5 193.167,127.5 192.5,128.5C 191.167,128.833 189.833,129.167 188.5,129.5C 187.264,127.957 185.598,126.957 183.5,126.5C 182.893,126.624 182.56,126.957 182.5,127.5C 181.957,127.44 181.624,127.107 181.5,126.5C 185.783,125.508 190.116,125.174 194.5,125.5 Z"/></g>
<g><path style="opacity:0.469" fill="#421104" d="M 172.5,126.5 C 173.167,126.833 173.833,127.167 174.5,127.5C 174.573,129.027 173.906,130.027 172.5,130.5C 172.5,129.167 172.5,127.833 172.5,126.5 Z"/></g>
<g><path style="opacity:0.6" fill="#491608" d="M 160.5,127.5 C 160.833,127.5 161.167,127.5 161.5,127.5C 162.167,128.5 162.833,129.5 163.5,130.5C 161.5,130.5 160.5,129.5 160.5,127.5 Z"/></g>
<g><path style="opacity:0.008" fill="#1f0800" d="M 193.5,130.5 C 194.718,132.332 194.051,133.332 191.5,133.5C 192.167,132.5 192.833,131.5 193.5,130.5 Z"/></g>
<g><path style="opacity:0.21" fill="#460d04" d="M 95.5,137.5 C 94.032,138.779 93.3653,140.446 93.5,142.5C 92.5489,141.081 92.2155,139.415 92.5,137.5C 93.5,137.5 94.5,137.5 95.5,137.5 Z"/></g>
<g><path style="opacity:0.004" fill="#2f1002" d="M 101.5,139.5 C 101.5,140.833 100.833,141.5 99.5,141.5C 99.8333,140.5 100.5,139.833 101.5,139.5 Z"/></g>
</svg>
